<svg width="978" height="220" viewBox="0 0 978 220" fill="none" xmlns="http://www.w3.org/2000/svg">
<path d="M83.06 30.64H6.25V33.11H83.06V30.64Z" fill="white"/>
<path d="M123.58 24L121.9 25.82C121.8 25.73 121.45 25.47 120.91 25.08L123.06 23.6C123.34 23.82 123.53 23.95 123.58 24Z" fill="white"/>
<path d="M126.22 35.82C126.19 35.83 126.17 35.86 126.15 35.87C125.83 36.11 125.64 36.24 125.56 36.3L124.77 35.36L123.92 34.47C123.93 34.46 123.97 34.42 124.04 34.36L124.05 34.35C124.06 34.35 124.06 34.35 124.07 34.34L126.22 35.82Z" fill="white"/>
<path d="M145.49 22.02C144.77 22.53 144.05 23.05 143.34 23.56C137.78 27.53 132.49 31.31 129.13 33.72L126.96 32.22C130.1 29.95 135.38 26.19 141.17 22.06C141.88 21.55 142.61 21.04 143.32 20.52L145.49 22.02Z" fill="white"/>
<path d="M135.92 16.19L137.6 18.01C137.7 17.92 138.05 17.66 138.59 17.27L136.44 15.79C136.15 16 135.97 16.14 135.92 16.19Z" fill="white"/>
<path d="M314.39 206.15H287.21V169.66H314.34V174.94H293.04V185.24H312.7V190.46H293.04V200.87H314.39V206.15Z" fill="white"/>
<path d="M386.43 206H381.47L359.41 179.8V206H353.59V169.51H358.54L380.54 196.14V169.51H386.43V206Z" fill="white"/>
<path d="M463.09 184.84C463.16 186.15 463.2 186.98 463.2 187.34C463.2 192.75 461.47 197.26 458.03 200.87C454.58 204.48 450.17 206.29 444.8 206.29C439.43 206.29 434.89 204.46 431.18 200.79C427.48 197.12 425.62 192.62 425.62 187.28C425.62 181.98 427.45 177.49 431.12 173.8C434.79 170.11 439.29 168.27 444.63 168.27C448.62 168.27 452.2 169.21 455.36 171.1C458.52 172.99 460.73 175.64 462.01 179.05L456.73 180.9C454.41 176.14 450.38 173.77 444.64 173.77C440.97 173.77 437.88 175.07 435.36 177.66C432.84 180.26 431.57 183.46 431.57 187.27C431.57 191.12 432.86 194.33 435.44 196.91C438.02 199.49 441.2 200.78 444.97 200.78C448.27 200.78 451.05 199.81 453.3 197.87C455.55 195.93 456.95 193.36 457.49 190.16H443V184.82H463.09V184.84Z" fill="white"/>
<path d="M508.23 169.35H502.4V205.84H508.23V169.35Z" fill="white"/>
<path d="M580.26 205.69H575.31L553.25 179.5V205.69H547.42V169.2H552.38L574.38 195.83V169.2H580.26V205.69Z" fill="white"/>
<path d="M646.64 205.54H619.46V169.05H646.58V174.33H625.29V184.63H644.95V189.85H625.29V200.26H646.64V205.54Z" fill="white"/>
<path d="M713.01 205.39H685.83V168.9H712.95V174.18H691.66V184.47H711.32V189.7H691.66V200.1H713.01V205.39Z" fill="white"/>
<path d="M776.33 205.23L763.31 190.69H758.03V205.23H752.2V168.74H769.36C773.1 168.74 776.12 169.75 778.43 171.76C780.73 173.78 781.89 176.43 781.89 179.74C781.89 182.86 780.85 185.41 778.76 187.39C776.67 189.37 773.89 190.45 770.4 190.63L783.58 205.23H776.33ZM769.36 185.41C771.36 185.41 772.97 184.89 774.21 183.86C775.45 182.82 776.06 181.45 776.06 179.75C776.06 178.04 775.44 176.66 774.21 175.61C772.98 174.56 771.36 174.03 769.36 174.03H758.03V185.41H769.36Z" fill="white"/>
<path d="M828.6 168.59H822.77V205.08H828.6V168.59Z" fill="white"/>
<path d="M900.64 204.93H895.68L873.62 178.73V204.93H867.8V168.44H872.75L894.76 195.07V168.44H900.64V204.93Z" fill="white"/>
<path d="M977.3 184.84C977.37 186.15 977.41 186.98 977.41 187.34C977.41 192.75 975.69 197.26 972.24 200.87C968.79 204.48 964.38 206.29 959.01 206.29C953.64 206.29 949.1 204.46 945.39 200.79C941.69 197.12 939.84 192.62 939.84 187.28C939.84 181.98 941.67 177.49 945.34 173.8C949.01 170.12 953.51 168.27 958.85 168.27C962.84 168.27 966.42 169.21 969.58 171.1C972.74 172.99 974.95 175.64 976.22 179.05L970.94 180.9C968.62 176.14 964.59 173.77 958.85 173.77C955.18 173.77 952.09 175.07 949.56 177.66C947.04 180.26 945.77 183.46 945.77 187.27C945.77 191.12 947.06 194.33 949.64 196.91C952.22 199.49 955.4 200.78 959.17 200.78C962.47 200.78 965.25 199.81 967.5 197.87C969.75 195.93 971.15 193.36 971.69 190.16H957.2V184.82H977.3V184.84Z" fill="white"/>
<path d="M287.21 19.04H327.49C356.77 19.04 364.21 36.67 364.21 51.07C364.21 65.47 356.77 83.1 327.49 83.1H302.74V133.57H287.21V19.04ZM302.74 69.51H323.12C335.41 69.51 347.71 66.6 347.71 51.07C347.71 35.54 335.42 32.63 323.12 32.63H302.74V69.51Z" fill="white"/>
<path d="M382.65 56.89H397.21V68.7H397.54C401.26 60.61 410.96 54.95 420.51 54.95C422.78 54.95 425.04 55.27 426.98 55.92L426.33 71.61C423.9 70.96 421.48 70.48 419.21 70.48C404.98 70.48 397.21 78.25 397.21 95.07V133.57H382.65V56.89Z" fill="white"/>
<path d="M479.86 54.95C502.67 54.95 520.62 72.9 520.62 95.23C520.62 117.55 502.66 135.51 479.86 135.51C457.05 135.51 439.1 117.55 439.1 95.23C439.1 72.9 457.05 54.95 479.86 54.95ZM479.86 121.92C495.39 121.92 505.09 110.76 505.09 95.23C505.09 79.7 495.39 68.54 479.86 68.54C464.33 68.54 454.63 79.7 454.63 95.23C454.63 110.76 464.33 121.92 479.86 121.92Z" fill="white"/>
<path d="M549.25 109.62C554.75 118.03 564.29 121.91 573.51 121.91C583.7 121.91 596.32 115.44 596.32 102.82C596.32 76.45 539.87 92.79 539.87 48.15C539.87 34.73 551.19 16.12 578.69 16.12C591.14 16.12 603.12 18.71 611.69 29.22L599.07 40.7C595.19 34.72 587.59 30.67 578.69 30.67C561.54 30.67 556.37 41.02 556.37 48.14C556.37 77.09 612.82 59.79 612.82 101.03C612.82 123.19 595.03 136.46 573.03 136.46C558.31 136.46 544.24 131.44 536.47 120.61L549.25 109.62Z" fill="white"/>
<path d="M676.39 69.51H655.52V104.29C655.52 112.86 655.52 121.92 666.52 121.92C669.92 121.92 673.96 121.43 676.87 119.65V132.92C673.47 134.86 666.68 135.51 663.77 135.51C641.29 135.51 640.96 121.76 640.96 109.47V69.52H624.14V56.9H640.96V35.39H655.52V56.9H676.39V69.51Z" fill="white"/>
<path d="M698.39 56.89H712.95V68.7H713.28C717 60.61 726.7 54.95 736.25 54.95C738.52 54.95 740.78 55.27 742.72 55.92L742.07 71.61C739.64 70.96 737.22 70.48 734.95 70.48C720.72 70.48 712.95 78.25 712.95 95.07V133.57H698.39V56.89Z" fill="white"/>
<path d="M829.41 133.56H814.85V121.75H814.53C810.81 129.84 801.11 135.5 789.3 135.5C774.42 135.5 761.48 126.6 761.48 106.22V56.88H776.04V102.17C776.04 116.57 784.29 121.9 793.51 121.9C805.64 121.9 814.86 114.14 814.86 96.34V56.87H829.42V133.56H829.41Z" fill="white"/>
<path d="M909.47 77.27C904.13 71.61 898.47 68.7 890.38 68.7C874.53 68.7 866.44 81.48 866.44 95.88C866.44 110.28 876.15 121.92 891.19 121.92C899.28 121.92 904.94 119.01 909.79 113.35L920.14 123.7C912.54 132.11 902.18 135.51 891.02 135.51C867.4 135.51 850.9 119.17 850.9 95.56C850.9 71.94 867.08 55.12 891.02 55.12C902.18 55.12 912.86 59 920.46 67.25L909.47 77.27Z" fill="white"/>
<path d="M976.92 69.51H956.05V104.29C956.05 112.86 956.05 121.92 967.05 121.92C970.45 121.92 974.49 121.43 977.4 119.65V132.92C974 134.86 967.21 135.51 964.3 135.51C941.82 135.51 941.49 121.76 941.49 109.47V69.52H924.67V56.9H941.49V35.39H956.05V56.9H976.92V69.51Z" fill="white"/>
<path d="M55.07 19.84V73.41L53.53 74.46C54.04 74.82 54.54 75.19 55.07 75.56V78.6C54.23 77.99 53.4 77.41 52.59 76.83V19.83H55.07V19.84Z" fill="white"/>
<path d="M55.07 85.62V88.65C54.24 88.07 53.41 87.48 52.59 86.89V83.83C53.42 84.43 54.25 85.02 55.07 85.62Z" fill="white"/>
<path d="M55.07 95.65V212.46H52.59V99.18L54.2 98.07C53.68 97.7 53.14 97.32 52.59 96.93V93.9C53.44 94.48 54.27 95.07 55.07 95.65Z" fill="white"/>
<path d="M22.9199 19.84H20.4399V150.57H22.9199V19.84Z" fill="white"/>
<path d="M77.59 19.84V57.92L75.11 59.62V19.84H77.59Z" fill="white"/>
<path d="M77.59 61.49V64.54C76.76 63.95 75.93 63.35 75.11 62.77V59.74C75.94 60.32 76.77 60.9 77.59 61.49Z" fill="white"/>
<path d="M77.59 71.54V74.57C76.77 73.99 75.94 73.41 75.11 72.81V69.77C75.94 70.37 76.77 70.95 77.59 71.54Z" fill="white"/>
<path d="M77.59 81.59V219.73H75.11V83.67L75.7 83.28C75.51 83.14 75.31 82.99 75.11 82.84V79.82C75.97 80.43 76.8 81.02 77.59 81.59Z" fill="white"/>
<path d="M75.17 204.01H27.65V206.49H75.17V204.01Z" fill="white"/>
<path d="M77.71 193.51L77.58 193.6L75.11 195.32L62.61 204.01L59.05 206.48H55.07V209.25L52.59 210.97V207.95L54.71 206.48L55.07 206.23L58.26 204.01L75.11 192.3L76.3 191.47L77.58 193.34L77.71 193.51Z" fill="white"/>
<path d="M77.71 184.49L77.58 184.57L75.11 186.29L55.07 200.23L52.59 201.95V198.93L55.07 197.21L75.11 183.27L76.3 182.45L77.58 184.31L77.71 184.49Z" fill="white"/>
<path d="M77.71 175.46L77.58 175.55L75.11 177.27L55.07 191.21L52.59 192.93V189.91L55.07 188.19L75.11 174.25L76.3 173.42L77.58 175.29L77.71 175.46Z" fill="white"/>
<path d="M77.71 166.44L77.58 166.53L75.11 168.25L55.07 182.19L52.59 183.91V180.89L55.07 179.17L75.11 165.23L76.3 164.4L77.58 166.27L77.71 166.44Z" fill="white"/>
<path d="M77.71 157.41L77.58 157.49L75.11 159.21L55.07 173.16L52.59 174.88V171.86L55.07 170.14L75.11 156.2L76.3 155.38L77.58 157.23L77.71 157.41Z" fill="white"/>
<path d="M77.71 148.38L77.58 148.47L75.11 150.19L55.07 164.14L52.59 165.86V162.84L55.07 161.12L75.11 147.18L76.3 146.35L77.58 148.21L77.71 148.38Z" fill="white"/>
<path d="M77.71 139.36L77.58 139.45L75.11 141.17L55.07 155.12L52.59 156.84V153.82L55.07 152.1L75.11 138.16L76.3 137.33L77.58 139.19L77.71 139.36Z" fill="white"/>
<path d="M77.71 130.34L77.58 130.42L75.11 132.14L55.07 146.08L52.59 147.8V144.79L55.07 143.07L75.11 129.14L76.3 128.31L77.58 130.16L77.71 130.34Z" fill="white"/>
<path d="M77.71 121.31L77.58 121.4L75.11 123.12L55.07 137.06L52.59 138.78V135.77L55.07 134.05L75.11 120.11L76.3 119.28L77.58 121.14L77.71 121.31Z" fill="white"/>
<path d="M77.71 112.29L77.58 112.38L75.11 114.1L55.07 128.03L52.59 129.75V126.75L55.07 125.03L75.11 111.09L76.3 110.26L77.58 112.12L77.71 112.29Z" fill="white"/>
<path d="M77.71 103.27L77.58 103.35L75.11 105.07L64.48 112.46L62.32 113.96L57.36 117.41L55.19 118.91L55.07 119.01L52.59 120.73V117.72L53.08 117.39L55.07 116L55.23 115.88L60.2 112.43L62.36 110.93L67.33 107.48L69.48 105.98L74.45 102.52L75.11 102.07L76.3 101.24L76.41 101.4L77.58 103.09L77.71 103.27Z" fill="white"/>
<path d="M77.71 94.24L77.58 94.33L77.34 94.5L75.11 96.05L72.35 97.97L70.21 99.46L65.23 102.92L63.08 104.42L58.1 107.87L55.95 109.37L55.07 109.99L52.59 111.71V108.7L53.82 107.85L55.07 106.98L55.97 106.35L60.94 102.9L63.1 101.39L68.06 97.93L70.22 96.44L75.11 93.04L75.19 92.98L76.3 92.21L77.58 94.07L77.71 94.24Z" fill="white"/>
<path d="M137.61 43.66L135.43 45.17L122.96 53.75L120.81 55.23L115.82 58.66L113.66 60.16L108.66 63.6L106.49 65.08L101.5 68.52L99.34 70.01L94.34 73.45L92.17 74.95L87.17 78.39L85 79.87L80.01 83.31L77.85 84.8L77.59 84.99L75.11 86.68L72.85 88.24L70.68 89.74L65.67 93.18L63.52 94.66L58.52 98.11L56.35 99.6L55.07 100.48L51.36 103.04L49.18 104.53L44.18 107.98L42.02 109.47L22.92 122.61L20.44 124.32L1.99997 137.02L0.589966 134.99L20.44 121.33L22.92 119.62L32.73 112.86L34.86 111.37H34.87L39.88 107.95L42.04 106.45L47.04 103.01L49.21 101.51L52.6 99.18L54.21 98.07L55.07 97.47L56.37 96.58L61.37 93.14L63.54 91.64L68.54 88.2L70.71 86.71L75.11 83.67L75.7 83.28L77.59 81.98L77.86 81.78L82.86 78.34L85.03 76.85L90.02 73.41L92.19 71.92L97.19 68.47L99.36 66.98L104.35 63.55L106.51 62.05L111.53 58.61L113.68 57.12L118.67 53.68L120.84 52.2L125.82 48.76L127.99 47.27L132.99 43.83L133.24 43.66L135.14 42.35L135.43 42.15L137.61 43.66Z" fill="white"/>
<path d="M146.25 10.65L137.62 16.59L136.8 17.14L135.43 18.1L118.04 30.07L115.87 31.56L110.87 35L108.69 36.5L103.7 39.93L101.54 41.43L96.5399 44.87L94.3599 46.37L89.3699 49.81L87.1899 51.31L82.21 54.73L80.0399 56.23L77.5899 57.91L75.1099 59.62L75.0299 59.67L72.8599 61.17L67.8599 64.61L65.6899 66.1L60.6899 69.55L58.5399 71.03L55.07 73.41L53.5399 74.46L52.6 75.12L51.3599 75.96L46.3699 79.4L44.1899 80.9L39.1899 84.34L37.0399 85.83L32.0399 89.28L29.8599 90.76L24.8599 94.22L22.9199 95.55L22.6899 95.7L20.4399 97.25L17.71 99.14L15.5299 100.64L5.91994 107.25L4.50995 105.21L20.4399 94.24L20.7299 94.04L22.71 92.68L22.9199 92.53L27.71 89.23H27.7199L29.8899 87.74L34.8899 84.3L37.0399 82.82L42.0399 79.36L44.2199 77.88L49.2199 74.43L51.3899 72.94H51.3999L52.6 72.1L55.07 70.4L56.3899 69.5L58.5399 68.01L63.5399 64.57L65.7199 63.08L70.7199 59.64L72.88 58.14L75.1099 56.6L77.5899 54.89L77.8899 54.7L80.0499 53.2L85.0399 49.77L87.2299 48.26L92.2199 44.83L94.3999 43.33L99.3699 39.89L101.55 38.4L106.54 34.97L108.72 33.47L113.72 30.03L115.88 28.53L120.91 25.08L123.06 23.59L133.24 16.59L135.43 15.08L144.83 8.59998L146.25 10.65Z" fill="white"/>
<path d="M185.01 39.04L178.49 43.53L177.62 44.13L176.32 45.03L175.43 45.64L171.32 48.47L169.14 49.97L164.16 53.4L161.99 54.89L157.97 57.67L156.99 58.34L155.76 59.18L154.81 59.83L149.82 63.27L147.64 64.77L142.66 68.2L140.49 69.7L140.4 69.76L138.2 68.25L138.34 68.16L140.5 66.67L145.49 63.24L147.68 61.73L152.67 58.3L153.59 57.67L154.85 56.8L155.78 56.16L159.82 53.36L162 51.86L166.99 48.43L169.17 46.94L173.24 44.14L174.17 43.5L175.43 42.63L176.33 42L181.36 38.54L182.81 37.54L185.01 39.04Z" fill="white"/>
<path d="M77.71 49.13L77.59 49.22L76.0099 50.32L75.1199 50.94L73.85 51.83L68.89 55.28L66.72 56.78L61.74 60.25L59.57 61.75L55.08 64.88L54.6 65.21L52.61 66.6V63.79C52.56 63.75 52.51 63.72 52.46 63.69L52.61 63.59L55.09 61.87L57.44 60.22L59.61 58.72L64.59 55.25L66.74 53.75L71.7299 50.28L73.88 48.78L75.13 47.91L76.32 47.08L77.61 48.94L77.71 49.13Z" fill="white"/>
<path d="M77.71 40.11L77.58 40.19L76.7 40.8L75.11 41.91L74.55 42.3L69.59 45.75H69.57L67.66 47.1L67.64 47.11L55.07 55.85L52.59 57.57V54.56L55.07 52.84L75.11 38.9L76.3 38.08L77.58 39.93L77.71 40.11Z" fill="white"/>
<path d="M77.71 31.08L77.58 31.17L75.11 32.89L74.79 33.11L55.07 46.83L52.59 48.55V45.54L55.07 43.82L70.45 33.11L74.02 30.64L75.11 29.88L76.3 29.05L77.4 30.64L77.58 30.91L77.71 31.08Z" fill="white"/>
<path d="M35.6299 111.95L34.7799 112.83L33.9499 113.76C33.9399 113.75 33.9299 113.74 33.9099 113.72C33.7499 113.6 33.3399 113.3 32.7299 112.85C30.8399 111.49 26.9999 108.75 22.9099 105.86C22.0899 105.28 21.2599 104.7 20.4299 104.1V101.07C21.2199 101.64 22.0599 102.23 22.9099 102.83C27.6999 106.22 32.9199 109.95 34.8499 111.37C35.2999 111.69 35.5699 111.89 35.6299 111.95Z" fill="white"/>
<path d="M42.03 106.45C42.76 106.97 43.47 107.48 44.17 107.99L42 109.47C41.29 108.98 40.58 108.47 39.86 107.95C33.81 103.63 27.41 99.09 22.9 95.87C22.83 95.82 22.75 95.77 22.68 95.71C21.92 95.18 21.22 94.68 20.59 94.23L20.71 94.06L22.02 92.22C22.24 92.38 22.47 92.53 22.69 92.7C22.75 92.74 22.83 92.79 22.9 92.85C23.53 93.3 24.17 93.75 24.84 94.24C30.14 97.98 36.37 102.4 42.03 106.45Z" fill="white"/>
<path d="M57.36 117.41L55.19 118.91C55.15 118.88 55.12 118.85 55.07 118.82C54.5 118.4 53.82 117.92 53.08 117.38C52.92 117.27 52.76 117.15 52.6 117.02V113.98C53.5 114.62 54.33 115.23 55.08 115.76C55.14 115.8 55.19 115.83 55.24 115.87C56.06 116.49 56.78 116.99 57.36 117.41Z" fill="white"/>
<path d="M51.36 103.04L49.18 104.53C48.47 104.04 47.76 103.53 47.04 103.01C41.07 98.75 34.63 94.16 29.86 90.77C29.11 90.22 28.39 89.72 27.72 89.23L29.89 87.75C30.6 88.24 31.31 88.76 32.04 89.28C37.45 93.13 43.65 97.54 49.21 101.51C49.94 102.03 50.65 102.53 51.36 103.04Z" fill="white"/>
<path d="M58.1 107.87L55.95 109.37C55.67 109.17 55.37 108.96 55.07 108.75C54.66 108.45 54.24 108.16 53.82 107.85C53.42 107.57 53.02 107.27 52.59 106.98V103.92C53.44 104.54 54.27 105.12 55.07 105.7C55.38 105.91 55.68 106.12 55.97 106.34C56.71 106.88 57.43 107.39 58.1 107.87Z" fill="white"/>
<path d="M64.47 112.46L62.32 113.96C61.8 113.58 61.08 113.06 60.2 112.42L62.35 110.92C63.32 111.62 64.04 112.15 64.47 112.46Z" fill="white"/>
<path d="M58.52 98.1L56.35 99.6C55.93 99.3 55.51 98.99 55.07 98.68C54.78 98.48 54.5 98.27 54.2 98.06C53.68 97.69 53.13 97.3 52.59 96.92C47.24 93.11 41.55 89.05 37.03 85.82C36.27 85.3 35.56 84.78 34.88 84.3L37.03 82.82C37.74 83.31 38.45 83.82 39.18 84.34C43.46 87.38 48.15 90.73 52.58 93.9C53.42 94.48 54.25 95.08 55.05 95.66C55.5 95.97 55.93 96.28 56.35 96.59C57.1 97.1 57.82 97.61 58.52 98.1Z" fill="white"/>
<path d="M65.2299 102.92L63.0799 104.42C62.4099 103.94 61.6899 103.43 60.9399 102.9L63.1099 101.39C63.8599 101.93 64.5599 102.44 65.2299 102.92Z" fill="white"/>
<path d="M70.81 106.98L69.94 107.87L69.14 108.8C69.13 108.79 69.11 108.78 69.09 108.75C68.89 108.6 68.27 108.16 67.33 107.48L69.47 105.98C70.28 106.56 70.75 106.92 70.81 106.98Z" fill="white"/>
<path d="M65.67 93.18L63.52 94.67C62.83 94.19 62.11 93.67 61.38 93.15C59.35 91.7 57.21 90.18 55.08 88.66C54.25 88.08 53.42 87.48 52.6 86.9C49.65 84.8 46.77 82.74 44.2 80.91C43.46 80.38 42.74 79.87 42.05 79.37L44.23 77.89C44.94 78.38 45.65 78.89 46.38 79.41C48.4 80.85 50.5 82.34 52.61 83.84C53.43 84.43 54.26 85.03 55.09 85.62C58.01 87.7 60.89 89.76 63.56 91.65C64.27 92.17 64.99 92.68 65.67 93.18Z" fill="white"/>
<path d="M72.3499 97.97L70.2099 99.46C69.5399 98.99 68.8399 98.48 68.0699 97.94L70.2199 96.44C70.9799 96.98 71.6899 97.49 72.3499 97.97Z" fill="white"/>
<path d="M76.6799 101.11L76.41 101.4L75.82 102.01L75.11 102.84L75.0099 102.95C74.9499 102.9 74.75 102.75 74.45 102.53L75.11 102.07V99.95C76.05 100.63 76.5999 101.04 76.6799 101.11Z" fill="white"/>
<path d="M72.85 88.24L70.6799 89.74C69.9899 89.25 69.2699 88.74 68.5399 88.2C64.2799 85.17 59.49 81.75 55.07 78.61C54.23 78 53.4 77.42 52.59 76.84C52.17 76.54 51.76 76.25 51.35 75.96C50.62 75.44 49.9 74.92 49.21 74.42L51.38 72.94H51.39C51.79 73.22 52.18 73.51 52.59 73.79C52.9 74.01 53.21 74.24 53.53 74.46C54.04 74.82 54.54 75.19 55.06 75.56C60.36 79.33 65.95 83.32 70.69 86.7C71.44 87.24 72.15 87.74 72.85 88.24Z" fill="white"/>
<path d="M77.71 94.24L77.59 94.33V94.69C77.52 94.63 77.43 94.58 77.34 94.5C76.7 94.04 75.98 93.53 75.2 92.98C75.18 92.96 75.15 92.93 75.11 92.92V89.88C76 90.51 76.83 91.1 77.59 91.64V94.08L77.71 94.24Z" fill="white"/>
<path d="M55.0699 65.55V68.57C54.1899 67.94 53.3699 67.36 52.5899 66.8C52.5399 66.76 52.4899 66.74 52.4399 66.69L52.5899 66.59V63.78C53.2299 64.24 53.8999 64.72 54.5799 65.2C54.7499 65.32 54.9099 65.43 55.0699 65.55Z" fill="white"/>
<path d="M80.0099 83.31L77.85 84.8C77.76 84.75 77.68 84.69 77.59 84.63C76.98 84.19 76.35 83.74 75.7 83.28C75.51 83.14 75.31 82.99 75.11 82.84C69.93 79.14 63.8099 74.79 58.5399 71.04C57.8099 70.52 57.08 70 56.39 69.5L58.5399 68.02C59.2499 68.52 59.96 69.03 60.69 69.55C65.55 72.99 70.63 76.62 75.11 79.82C75.97 80.43 76.8 81.02 77.59 81.59C77.69 81.66 77.77 81.72 77.86 81.78C78.6 82.31 79.3199 82.83 80.0099 83.31Z" fill="white"/>
<path d="M61.73 60.24L59.56 61.74C58.8 61.19 58.09 60.69 57.42 60.22L59.59 58.72C60.28 59.22 61 59.72 61.73 60.24Z" fill="white"/>
<path d="M87.17 78.39L85 79.88C84.32 79.39 83.6 78.88 82.86 78.35C81.21 77.17 79.43 75.9 77.59 74.59C76.77 74.01 75.94 73.43 75.11 72.83C71.95 70.58 68.71 68.26 65.69 66.11C64.95 65.59 64.23 65.08 63.54 64.59L65.72 63.09C66.43 63.6 67.14 64.11 67.86 64.63C70.27 66.34 72.73 68.08 75.11 69.79C75.94 70.38 76.77 70.97 77.59 71.56C80.25 73.45 82.78 75.25 85.03 76.87C85.78 77.38 86.49 77.89 87.17 78.39Z" fill="white"/>
<path d="M68.8699 55.28L66.6999 56.78C65.9599 56.25 65.2399 55.74 64.5599 55.26L66.7099 53.76C67.4199 54.25 68.1399 54.76 68.8699 55.28Z" fill="white"/>
<path d="M94.34 73.45L92.17 74.95C91.49 74.47 90.77 73.95 90.02 73.41C86.39 70.81 81.98 67.65 77.59 64.53C76.76 63.94 75.93 63.34 75.12 62.76C74.36 62.22 73.61 61.68 72.87 61.16C72.15 60.64 71.44 60.13 70.73 59.62L72.9 58.12C73.62 58.63 74.32 59.14 75.04 59.66C75.08 59.67 75.1 59.7 75.13 59.72C75.96 60.3 76.79 60.88 77.6 61.48C82.9 65.24 88.12 68.98 92.21 71.9C92.95 72.46 93.67 72.97 94.34 73.45Z" fill="white"/>
<path d="M69.57 45.75L67.65 47.1L68.92 45.29C69.14 45.44 69.35 45.59 69.57 45.75Z" fill="white"/>
<path d="M77.58 51.46V54.49C76.74 53.9 75.91 53.3 75.1 52.73V50.94L73.83 51.83C73.09 51.3 72.38 50.79 71.7 50.3L73.85 48.8C74.26 49.1 74.68 49.39 75.1 49.7C75.4 49.9 75.68 50.11 75.99 50.32C76.52 50.69 77.05 51.07 77.58 51.46Z" fill="white"/>
<path d="M101.5 68.52L99.33 70.01C98.66 69.54 97.96 69.02 97.19 68.48C92.45 65.09 85.9999 60.5 80.0399 56.24C79.3099 55.72 78.59 55.21 77.89 54.7L80.06 53.2C80.78 53.71 81.5 54.23 82.21 54.74C88.5 59.22 94.82 63.74 99.36 66.98C100.13 67.53 100.85 68.05 101.5 68.52Z" fill="white"/>
<path d="M77.58 41.42V44.45C76.7 43.83 75.87 43.24 75.1 42.69C74.91 42.55 74.73 42.43 74.54 42.29C74.12 41.99 73.72 41.71 73.35 41.45L74.79 39.43C74.89 39.5 74.99 39.58 75.1 39.65C75.62 40.01 76.15 40.39 76.7 40.79C76.99 41 77.29 41.21 77.58 41.42Z" fill="white"/>
<path d="M108.65 63.6L106.48 65.09C105.84 64.62 105.12 64.11 104.34 63.56C99.82 60.32 93.32 55.69 87.19 51.32C86.46 50.79 85.74 50.28 85.04 49.78L87.23 48.27C87.94 48.79 88.65 49.31 89.37 49.82C95.84 54.44 102.22 58.98 106.51 62.06C107.3 62.62 108.02 63.14 108.65 63.6Z" fill="white"/>
<path d="M115.82 58.66L113.65 60.16C113.04 59.71 112.33 59.19 111.52 58.61C107.3 55.59 100.73 50.9 94.35 46.37C93.63 45.85 92.91 45.33 92.21 44.84L94.39 43.34C95.11 43.85 95.81 44.36 96.53 44.88C103.23 49.66 109.69 54.26 113.67 57.13C114.5 57.72 115.22 58.24 115.82 58.66Z" fill="white"/>
<path d="M122.96 53.75L120.81 55.24C120.27 54.84 119.55 54.32 118.67 53.69C114.85 50.94 108.19 46.18 101.54 41.44C100.81 40.93 100.09 40.41 99.37 39.9L101.55 38.4C102.27 38.92 102.99 39.43 103.7 39.93C110.71 44.93 117.28 49.62 120.83 52.2C121.76 52.87 122.49 53.4 122.96 53.75Z" fill="white"/>
<path d="M129.44 48.35L128.57 49.24L127.77 50.18C127.62 50.07 126.93 49.56 125.81 48.76C122.55 46.41 115.71 41.52 108.68 36.51C107.96 35.99 107.25 35.48 106.53 34.98L108.71 33.48C109.43 34 110.15 34.51 110.86 35.02C118.32 40.34 125.09 45.18 127.98 47.29C128.86 47.9 129.37 48.29 129.44 48.35Z" fill="white"/>
<path d="M135.3 42.48L134.45 43.37L133.84 44.08L133.64 44.31C133.57 44.25 133.34 44.09 132.98 43.83C131.33 42.63 126.87 39.42 121.48 35.57L121.27 35.42C121.12 35.32 120.97 35.21 120.82 35.1C119.22 33.96 117.55 32.77 115.86 31.56C115.14 31.05 114.43 30.53 113.71 30.03L115.88 28.53C116.6 29.05 117.33 29.56 118.03 30.07C119.48 31.11 120.89 32.11 122.24 33.08C122.85 33.53 123.45 33.95 124.04 34.36C124.76 34.89 125.46 35.39 126.14 35.88C129.36 38.17 131.99 40.06 133.6 41.23C133.75 41.34 133.9 41.44 134.02 41.53C134.55 41.93 134.94 42.21 135.13 42.36C135.23 42.42 135.29 42.47 135.3 42.48Z" fill="white"/>
<path d="M157.97 57.67L156.99 58.34L155.76 59.18L153.59 57.67L153.02 57.27L150.85 55.79L145.85 52.35L143.68 50.85L138.7 47.42L136.54 45.93L135.43 45.17L133.84 44.08L133.24 43.66L121.49 35.57L121.28 35.43L120.83 35.12V35.1L122.25 33.07L124.07 34.34L126.22 35.82L126.52 36.02L131.52 39.46L132.89 40.4L133.68 40.95L134.26 41.34L135.43 42.15L137.61 43.66L138.67 44.39L140.84 45.87L142.25 46.85L142.27 46.87H142.28L145.82 49.31L147.98 50.8L152.99 54.24L155.16 55.74L155.78 56.16L157.97 57.67Z" fill="white"/>
<path d="M258.9 127.18L257.51 129.21L239.06 116.51L237.83 115.66L235.35 113.95L233.89 112.95L217.49 101.66L215.45 100.26V206.48H190.46V83.05L188.82 81.93L186.66 80.43L184.39 78.87L181.92 77.18L181.66 76.99L179.49 75.5L174.5 72.06L172.34 70.58L167.32 67.14L165.79 66.07L165.16 65.64L163.6 64.56L165.78 63.05L167.99 61.53L170.17 60.03L175.16 56.6L177.34 55.11L182.34 51.67L183.25 51.03L184.5 50.17L185.45 49.52L186.62 50.33L187.64 51.03L188.79 51.83L190.46 52.98L192.93 54.69L193.79 55.27L195.97 56.77L200.97 60.21L203.12 61.69L204.42 62.59L206.89 64.29L208.11 65.13H208.12L210.29 66.62L212.97 68.47L215.27 70.07L215.45 70.19L217.45 71.56L222.47 75.01L224.62 76.49L229.62 79.94L231.79 81.42H231.8L235.35 83.87L236.59 84.73L236.8 84.87L237.83 85.58L238.77 86.24L239.06 86.43L252.54 95.72L253.97 96.69L254.99 97.4L253.58 99.44L251.8 98.22L243.98 92.83L241.8 91.34L239.06 89.44L237.83 88.59V112.66L238.23 112.95L239.06 113.52L258.9 127.18Z" fill="white"/>
<path d="M177.62 44.13L176.32 45.03L175.43 45.64L173.24 44.14L172.31 43.5L170.13 42L167.42 40.13L165.26 38.63H165.25L165.13 38.56L162.96 37.06L159.39 34.6L157.97 33.62L157.22 33.1L155.8 32.12L151.37 29.08L150.81 28.69L149.2 27.58L148.63 27.19L143.63 23.75L143.34 23.56L141.47 22.26L141.17 22.06L135.43 18.1L133.24 16.59L113.26 2.83998L114.67 0.789978L135.43 15.08L136.44 15.78L137.62 16.59L138.6 17.27L143.32 20.52L145.49 22.02L145.79 22.22L150.79 25.66L151.36 26.04L152.97 27.16L153.52 27.54L157.95 30.59L159.38 31.56L160.13 32.08L161.54 33.06L165.11 35.52L167.27 37.02L167.4 37.11L169.56 38.59H169.58L172.26 40.45L174.47 41.96L175.43 42.63L177.62 44.13Z" fill="white"/>
<path d="M134.26 41.34C134.16 41.41 134.07 41.46 134.02 41.51C133.97 41.54 133.93 41.56 133.91 41.59L133.6 41.22L133.12 40.65L132.88 40.4L133.67 40.94L134.26 41.34Z" fill="white"/>
<path d="M153.52 27.54C152.91 27.97 152.31 28.41 151.7 28.84C151.59 28.91 151.48 29 151.37 29.07C145.94 32.96 140.79 36.63 137.5 39L135.33 37.5C138.41 35.28 143.55 31.62 149.21 27.57C149.32 27.5 149.43 27.41 149.54 27.33C150.13 26.9 150.75 26.48 151.36 26.03L152.97 27.14L153.52 27.54Z" fill="white"/>
<path d="M161.54 33.06C161.05 33.42 160.55 33.78 160.06 34.12C159.84 34.28 159.61 34.44 159.39 34.59C154.08 38.39 149.07 41.97 145.85 44.28L143.68 42.78C146.7 40.6 151.69 37.04 157.22 33.09C157.44 32.94 157.67 32.78 157.89 32.62C158.37 32.27 158.88 31.91 159.37 31.55L160.13 32.07L161.54 33.06Z" fill="white"/>
<path d="M169.56 38.59C169.18 38.88 168.79 39.15 168.41 39.42C168.08 39.65 167.75 39.89 167.42 40.13C166.06 41.11 164.71 42.06 163.42 42.99C159.79 45.58 156.53 47.92 154.2 49.59L152.03 48.09C154.99 45.96 159.84 42.5 165.24 38.63H165.25C165.57 38.39 165.91 38.16 166.24 37.92C166.61 37.65 167.01 37.38 167.39 37.1L169.56 38.59Z" fill="white"/>
</svg>
